<svg width="24" height="24" viewBox="0 0 24 24" fill="none" xmlns="http://www.w3.org/2000/svg">
<circle cx="12.1465" cy="12.1494" r="11.7495" fill="white"/>
<path fill-rule="evenodd" clip-rule="evenodd" d="M12.1471 2.11719C6.60636 2.11719 2.1145 6.60905 2.1145 12.1498C2.1145 17.6905 6.60636 22.1824 12.1471 22.1824C17.6878 22.1824 22.1797 17.6905 22.1797 12.1498C22.1797 6.60905 17.6878 2.11719 12.1471 2.11719ZM16.4958 10.4534C16.5758 10.3618 16.6368 10.2552 16.675 10.1398C16.7133 10.0243 16.7281 9.90239 16.7185 9.78115C16.709 9.65991 16.6753 9.54181 16.6194 9.43379C16.5635 9.32577 16.4866 9.23002 16.3932 9.15216C16.2998 9.07431 16.1917 9.01592 16.0754 8.98044C15.9591 8.94496 15.8368 8.93311 15.7158 8.94557C15.5949 8.95803 15.4776 8.99456 15.371 9.05302C15.2643 9.11147 15.1704 9.19065 15.0948 9.28592L11.173 13.9912L9.14369 11.961C8.97168 11.7948 8.74129 11.7029 8.50215 11.705C8.26302 11.7071 8.03426 11.803 7.86516 11.9721C7.69606 12.1412 7.60014 12.3699 7.59806 12.6091C7.59598 12.8482 7.68791 13.0786 7.85405 13.2506L10.5902 15.9868C10.6798 16.0763 10.7871 16.1462 10.9052 16.192C11.0234 16.2378 11.1498 16.2585 11.2763 16.2528C11.4029 16.247 11.5269 16.215 11.6404 16.1587C11.7538 16.1023 11.8544 16.023 11.9355 15.9257L16.4958 10.4534Z" fill="#007AFF"/>
</svg>
