<svg width="86" height="138" viewBox="0 0 86 138" fill="none" xmlns="http://www.w3.org/2000/svg">
<g id="Dot Ornament" opacity="0.5">
<rect id="Rectangle 3" x="0.755859" y="0.665527" width="2.01956" height="2.02287" fill="black"/>
<rect id="Rectangle 3 Copy" x="14.2002" y="0.665527" width="2.01956" height="2.02287" fill="black"/>
<rect id="Rectangle 3 Copy 2" x="27.6523" y="0.665527" width="2.01956" height="2.02287" fill="black"/>
<rect id="Rectangle 3 Copy 3" x="41.0947" y="0.665527" width="2.01956" height="2.02287" fill="black"/>
<rect id="Rectangle 3 Copy 4" x="54.54" y="0.665527" width="2.01956" height="2.02287" fill="black"/>
<rect id="Rectangle 3 Copy 5" x="67.9854" y="0.665527" width="2.01956" height="2.02287" fill="black"/>
<rect id="Rectangle 3 Copy 6" x="81.4365" y="0.665527" width="2.01956" height="2.02287" fill="black"/>
<rect id="Rectangle 3 Copy 19" x="0.755859" y="14.1313" width="2.01956" height="2.02287" fill="black"/>
<rect id="Rectangle 3 Copy 18" x="14.2002" y="14.1313" width="2.01956" height="2.02287" fill="black"/>
<rect id="Rectangle 3 Copy 17" x="27.6523" y="14.1313" width="2.01956" height="2.02287" fill="black"/>
<rect id="Rectangle 3 Copy 16" x="41.0947" y="14.1313" width="2.01956" height="2.02287" fill="black"/>
<rect id="Rectangle 3 Copy 15" x="54.54" y="14.1313" width="2.01956" height="2.02287" fill="black"/>
<rect id="Rectangle 3 Copy 14" x="67.9854" y="14.1313" width="2.01956" height="2.02287" fill="black"/>
<rect id="Rectangle 3 Copy 13" x="81.4365" y="14.1313" width="2.01956" height="2.02287" fill="black"/>
<rect id="Rectangle 3 Copy 29" x="0.755859" y="27.6055" width="2.01956" height="2.02287" fill="black"/>
<rect id="Rectangle 3 Copy 28" x="14.2002" y="27.6064" width="2.01956" height="2.02287" fill="black"/>
<rect id="Rectangle 3 Copy 27" x="27.6523" y="27.6055" width="2.01956" height="2.02287" fill="black"/>
<rect id="Rectangle 3 Copy 26" x="41.0957" y="27.6064" width="2.01956" height="2.02287" fill="black"/>
<rect id="Rectangle 3 Copy 25" x="54.54" y="27.6064" width="2.01956" height="2.02287" fill="black"/>
<rect id="Rectangle 3 Copy 24" x="67.9854" y="27.6064" width="2.01956" height="2.02287" fill="black"/>
<rect id="Rectangle 3 Copy 23" x="81.4365" y="27.6064" width="2.01956" height="2.02287" fill="black"/>
<rect id="Rectangle 3 Copy 39" x="0.755859" y="41.0713" width="2.01956" height="2.02287" fill="black"/>
<rect id="Rectangle 3 Copy 38" x="14.2002" y="41.0713" width="2.01956" height="2.02287" fill="black"/>
<rect id="Rectangle 3 Copy 37" x="27.6523" y="41.0713" width="2.01956" height="2.02287" fill="black"/>
<rect id="Rectangle 3 Copy 36" x="41.0947" y="41.0713" width="2.01956" height="2.02287" fill="black"/>
<rect id="Rectangle 3 Copy 35" x="54.54" y="41.0713" width="2.01956" height="2.02287" fill="black"/>
<rect id="Rectangle 3 Copy 34" x="67.9854" y="41.0713" width="2.01956" height="2.02287" fill="black"/>
<rect id="Rectangle 3 Copy 33" x="81.4365" y="41.0713" width="2.01956" height="2.02287" fill="black"/>
<rect id="Rectangle 3 Copy 49" x="0.755859" y="54.54" width="2.01956" height="2.02287" fill="black"/>
<rect id="Rectangle 3 Copy 48" x="14.2002" y="54.54" width="2.01956" height="2.02287" fill="black"/>
<rect id="Rectangle 3 Copy 47" x="27.6523" y="54.54" width="2.01956" height="2.02287" fill="black"/>
<rect id="Rectangle 3 Copy 46" x="41.0947" y="54.54" width="2.01956" height="2.02287" fill="black"/>
<rect id="Rectangle 3 Copy 45" x="54.54" y="54.54" width="2.01956" height="2.02287" fill="black"/>
<rect id="Rectangle 3 Copy 44" x="67.9854" y="54.54" width="2.01956" height="2.02287" fill="black"/>
<rect id="Rectangle 3 Copy 43" x="81.4365" y="54.54" width="2.01956" height="2.02287" fill="black"/>
<rect id="Rectangle 3 Copy 59" x="0.755859" y="68.0068" width="2.01956" height="2.02287" fill="black"/>
<rect id="Rectangle 3 Copy 58" x="14.2002" y="68.0068" width="2.01956" height="2.02287" fill="black"/>
<rect id="Rectangle 3 Copy 57" x="27.6523" y="68.0068" width="2.01956" height="2.02287" fill="black"/>
<rect id="Rectangle 3 Copy 56" x="41.0947" y="68.0068" width="2.01956" height="2.02287" fill="black"/>
<rect id="Rectangle 3 Copy 55" x="54.54" y="68.0068" width="2.01956" height="2.02287" fill="black"/>
<rect id="Rectangle 3 Copy 54" x="67.9854" y="68.0068" width="2.01956" height="2.02287" fill="black"/>
<rect id="Rectangle 3 Copy 53" x="81.4365" y="68.0068" width="2.01956" height="2.02287" fill="black"/>
<rect id="Rectangle 3 Copy 69" x="0.755859" y="81.4795" width="2.01956" height="2.02287" fill="black"/>
<rect id="Rectangle 3 Copy 68" x="14.2002" y="81.4795" width="2.01956" height="2.02287" fill="black"/>
<rect id="Rectangle 3 Copy 67" x="27.6523" y="81.4795" width="2.01956" height="2.02287" fill="black"/>
<rect id="Rectangle 3 Copy 66" x="41.0947" y="81.4795" width="2.01956" height="2.02287" fill="black"/>
<rect id="Rectangle 3 Copy 65" x="54.54" y="81.4795" width="2.01956" height="2.02287" fill="black"/>
<rect id="Rectangle 3 Copy 64" x="67.9854" y="81.4795" width="2.01956" height="2.02287" fill="black"/>
<rect id="Rectangle 3 Copy 63" x="81.4365" y="81.4795" width="2.01956" height="2.02287" fill="black"/>
<rect id="Rectangle 3 Copy 79" x="0.755859" y="94.9458" width="2.01956" height="2.02287" fill="black"/>
<rect id="Rectangle 3 Copy 78" x="14.2002" y="94.9478" width="2.01956" height="2.02287" fill="black"/>
<rect id="Rectangle 3 Copy 77" x="27.6523" y="94.9478" width="2.01956" height="2.02287" fill="black"/>
<rect id="Rectangle 3 Copy 76" x="41.0947" y="94.9478" width="2.01956" height="2.02287" fill="black"/>
<rect id="Rectangle 3 Copy 75" x="54.54" y="94.9478" width="2.01956" height="2.02287" fill="black"/>
<rect id="Rectangle 3 Copy 74" x="67.9854" y="94.9478" width="2.01956" height="2.02287" fill="black"/>
<rect id="Rectangle 3 Copy 73" x="81.4365" y="94.9478" width="2.01956" height="2.02287" fill="black"/>
<rect id="Rectangle 3 Copy 89" x="0.755859" y="108.414" width="2.01956" height="2.02287" fill="black"/>
<rect id="Rectangle 3 Copy 88" x="14.2002" y="108.414" width="2.01956" height="2.02287" fill="black"/>
<rect id="Rectangle 3 Copy 87" x="27.6523" y="108.414" width="2.01956" height="2.02287" fill="black"/>
<rect id="Rectangle 3 Copy 86" x="41.0947" y="108.414" width="2.01956" height="2.02287" fill="black"/>
<rect id="Rectangle 3 Copy 85" x="54.54" y="108.414" width="2.01956" height="2.02287" fill="black"/>
<rect id="Rectangle 3 Copy 84" x="67.9854" y="108.414" width="2.01956" height="2.02287" fill="black"/>
<rect id="Rectangle 3 Copy 83" x="81.4365" y="108.414" width="2.01956" height="2.02287" fill="black"/>
<rect id="Rectangle 3 Copy 99" x="0.755859" y="121.88" width="2.01956" height="2.02287" fill="black"/>
<rect id="Rectangle 3 Copy 98" x="14.2002" y="121.88" width="2.01956" height="2.02287" fill="black"/>
<rect id="Rectangle 3 Copy 97" x="27.6523" y="121.88" width="2.01956" height="2.02287" fill="black"/>
<rect id="Rectangle 3 Copy 96" x="41.0947" y="121.88" width="2.01956" height="2.02287" fill="black"/>
<rect id="Rectangle 3 Copy 95" x="54.54" y="121.88" width="2.01956" height="2.02287" fill="black"/>
<rect id="Rectangle 3 Copy 94" x="67.9854" y="121.88" width="2.01956" height="2.02287" fill="black"/>
<rect id="Rectangle 3 Copy 93" x="81.4365" y="121.88" width="2.01956" height="2.02287" fill="black"/>
<rect id="Rectangle 3 Copy 109" x="0.755859" y="135.352" width="2.01956" height="2.02287" fill="black"/>
<rect id="Rectangle 3 Copy 108" x="14.2002" y="135.353" width="2.01956" height="2.02287" fill="black"/>
<rect id="Rectangle 3 Copy 107" x="27.6523" y="135.353" width="2.01956" height="2.02287" fill="black"/>
<rect id="Rectangle 3 Copy 106" x="41.0947" y="135.353" width="2.01956" height="2.02287" fill="black"/>
<rect id="Rectangle 3 Copy 105" x="54.54" y="135.353" width="2.01956" height="2.02287" fill="black"/>
<rect id="Rectangle 3 Copy 104" x="67.9854" y="135.353" width="2.01956" height="2.02287" fill="black"/>
<rect id="Rectangle 3 Copy 103" x="81.4365" y="135.353" width="2.01956" height="2.02287" fill="black"/>
</g>
</svg>
