<svg xmlns="http://www.w3.org/2000/svg" width="15" height="13" viewBox="0 0 15 13" fill="none">
  <path d="M12.47 2.40342L12.4694 2.40286C12.1588 2.09844 11.7927 1.85652 11.3909 1.69025L11.3899 1.68987C10.9729 1.51665 10.5257 1.42799 10.0742 1.42903L10.0725 1.42903C9.43697 1.42903 8.81823 1.60299 8.28115 1.93063L8.28113 1.93064C8.15261 2.00904 8.03105 2.09481 7.91619 2.18798L7.46584 2.55326L7.01549 2.18798C6.90062 2.09481 6.77906 2.00904 6.65055 1.93064L6.65053 1.93063C6.11345 1.60299 5.49471 1.42903 4.85917 1.42903C4.40024 1.42903 3.95884 1.51662 3.54174 1.68987L3.54097 1.69019C3.13747 1.85725 2.77454 2.09703 2.46206 2.40307L2.46109 2.40403L2.46109 2.40403C2.15188 2.70572 1.90488 3.06515 1.73407 3.46194L12.47 2.40342ZM12.47 2.40342C12.7791 2.70577 13.0263 3.06548 13.1978 3.46242C13.3754 3.87533 13.4655 4.31151 13.4642 4.76122V4.76325C13.4642 5.18297 13.3785 5.63586 13.1959 6.11354L13.1952 6.11516C13.0441 6.51337 12.8184 6.94072 12.5207 7.38514C12.0498 8.08713 11.3893 8.83793 10.5484 9.61433C9.14912 10.9051 7.76223 11.7977 7.71576 11.8275L7.71562 11.8276L7.46506 11.9883L7.2145 11.8276L7.21456 11.8275L7.20327 11.8206C7.20365 11.8208 7.20316 11.8205 7.20178 11.8196C7.19603 11.8159 7.17488 11.8024 7.13697 11.7775C7.09253 11.7483 7.02936 11.7062 6.95011 11.6523C6.79157 11.5443 6.56948 11.3893 6.3048 11.1944C5.77436 10.8039 5.0785 10.2578 4.38204 9.61459L4.38196 9.61452M12.47 2.40342L4.38196 9.61452M4.38196 9.61452C3.54105 8.83818 2.88055 8.08743 2.40967 7.38549L4.38196 9.61452ZM1.46588 4.76325C1.46588 4.31201 1.55632 3.87502 1.73405 3.462L1.73424 6.11349C1.55157 5.63583 1.46588 5.18296 1.46588 4.76325ZM2.40943 7.38514C2.11267 6.9421 1.88773 6.51411 1.73425 6.11354L2.40943 7.38514Z" stroke="#888888" stroke-width="1.42981"/>
</svg>